<svg xmlns="http://www.w3.org/2000/svg" width="14.681" height="18.659" viewBox="0 0 14.681 18.659">
  <g id="Groupe_695" data-name="Groupe 695" transform="translate(0 0)">
    <path id="Tracé_774" data-name="Tracé 774" d="M263.76-1074c-1.29-1.29-1.48-3.693-1.48-6.761s-2.9-5.4-4.26-5.4a1.116,1.116,0,0,0,.235-.658,1.326,1.326,0,0,0-1.393-1.33,1.326,1.326,0,0,0-1.393,1.33,1.116,1.116,0,0,0,.235.658c-1.362,0-4.26,2.331-4.26,5.4s-.191,5.471-1.48,6.761a1.086,1.086,0,0,0-.443.942c0,.454.248.885,1.175.885h12.331c.927,0,1.175-.431,1.175-.885A1.086,1.086,0,0,0,263.76-1074Z" transform="translate(-249.521 1088.15)" fill="#fff"/>
    <path id="Tracé_775" data-name="Tracé 775" d="M312.682-892.516H309.76a.914.914,0,0,0-.893.875c0,.55.553,1.345,2.354,1.345s2.354-.8,2.354-1.345A.914.914,0,0,0,312.682-892.516Z" transform="translate(-303.88 908.954)" fill="#fff"/>
  </g>
</svg>
