<svg xmlns="http://www.w3.org/2000/svg" width="21.78" height="25" viewBox="0 0 21.78 25">
  <path id="Tracé_384" data-name="Tracé 384" d="M653.762-141.626a5.27,5.27,0,0,0-5.236-4.66H648.1a7.331,7.331,0,0,0,2.157-5.2,7.363,7.363,0,0,0-7.355-7.354,7.363,7.363,0,0,0-7.354,7.354,7.331,7.331,0,0,0,2.157,5.2h-.409a5.271,5.271,0,0,0-5.234,4.652,5.21,5.21,0,0,0-.039.622v2.777l.357.322a15.518,15.518,0,0,0,10.524,4.074,15.514,15.514,0,0,0,10.542-4.091l.356-.322v-2.761A5.249,5.249,0,0,0,653.762-141.626ZM642.9-156.674a5.2,5.2,0,0,1,5.19,5.19,5.2,5.2,0,0,1-5.19,5.19,5.2,5.2,0,0,1-5.19-5.19A5.2,5.2,0,0,1,642.9-156.674Zm8.734,17.451A13.337,13.337,0,0,1,642.9-136a13.34,13.34,0,0,1-8.716-3.2v-1.8a3.129,3.129,0,0,1,.024-.368,3.106,3.106,0,0,1,3.085-2.741h11.232a3.1,3.1,0,0,1,3.085,2.745h0a3.115,3.115,0,0,1,.023.363Z" transform="translate(-632.021 158.839)" fill="#000"/>
</svg>
