<svg xmlns="http://www.w3.org/2000/svg" width="23.241" height="23.241" viewBox="0 0 23.241 23.241">
  <path id="Tracé_616" data-name="Tracé 616" d="M177.853,808.65H166.378a5.883,5.883,0,0,0-5.883,5.883v11.476a5.883,5.883,0,0,0,5.883,5.883h3.944v-8.3h-2.915v-3.318h2.915v-2.529c0-2.877,1.713-4.466,4.336-4.466a17.651,17.651,0,0,1,2.57.224v2.825H175.78a1.659,1.659,0,0,0-1.871,1.792v2.154h3.184l-.509,3.318h-2.675v8.3l0,0h3.94a5.883,5.883,0,0,0,5.883-5.883V814.533A5.883,5.883,0,0,0,177.853,808.65Z" transform="translate(-160.495 -808.65)" fill="#d5d5d5"/>
</svg>
