<svg id="Groupe_616" data-name="Groupe 616" xmlns="http://www.w3.org/2000/svg" width="23.24" height="23.241" viewBox="0 0 23.24 23.241">
  <path id="Tracé_613" data-name="Tracé 613" d="M232.34,823.425a2.123,2.123,0,1,0,2.123,2.123A2.125,2.125,0,0,0,232.34,823.425Z" transform="translate(-220.664 -813.904)" fill="#d5d5d5"/>
  <path id="Tracé_614" data-name="Tracé 614" d="M233.1,818.242h-5.374a2.779,2.779,0,0,0-2.776,2.776v5.374a2.779,2.779,0,0,0,2.776,2.777H233.1a2.78,2.78,0,0,0,2.777-2.777v-5.374A2.779,2.779,0,0,0,233.1,818.242Zm-2.632,8.777a3.315,3.315,0,1,1,3.315-3.315A3.318,3.318,0,0,1,230.466,827.019Zm3.508-6.062a.789.789,0,1,1,.789-.789A.789.789,0,0,1,233.974,820.957Z" transform="translate(-218.791 -812.061)" fill="#d5d5d5"/>
  <path id="Tracé_615" data-name="Tracé 615" d="M232.751,808.65H221.275a5.882,5.882,0,0,0-5.882,5.883v11.476a5.882,5.882,0,0,0,5.882,5.883h11.476a5.882,5.882,0,0,0,5.882-5.883V814.533A5.882,5.882,0,0,0,232.751,808.65Zm.992,14.331a4.047,4.047,0,0,1-4.043,4.042h-5.374a4.047,4.047,0,0,1-4.042-4.042v-5.374a4.047,4.047,0,0,1,4.042-4.042H229.7a4.047,4.047,0,0,1,4.043,4.042Z" transform="translate(-215.393 -808.65)" fill="#d5d5d5"/>
</svg>
