<svg id="Groupe_701" data-name="Groupe 701" xmlns="http://www.w3.org/2000/svg" xmlns:xlink="http://www.w3.org/1999/xlink" width="93.466" height="110.42" viewBox="0 0 93.466 110.42">
  <defs>
    <clipPath id="clip-path">
      <rect id="Rectangle_521" data-name="Rectangle 521" width="93.466" height="110.42" fill="#fff"/>
    </clipPath>
  </defs>
  <g id="Groupe_700" data-name="Groupe 700" clip-path="url(#clip-path)">
    <path id="Tracé_783" data-name="Tracé 783" d="M91.933,52.867,64.279,4.968A9.936,9.936,0,0,0,55.673,0H37.591a9.937,9.937,0,0,0-8.606,4.968L1.331,52.867a9.937,9.937,0,0,0,0,9.937l9.041,15.66a9.937,9.937,0,0,0,8.606,4.968H74.286a9.937,9.937,0,0,0,8.605-4.968L91.933,62.8a9.935,9.935,0,0,0,0-9.937m-13.14,12.79h0A15.646,15.646,0,0,1,65.245,73.48H28.019a15.644,15.644,0,0,1-13.548-7.822h0a15.644,15.644,0,0,1,0-15.644L33.084,17.774a15.644,15.644,0,0,1,27.1,0L78.793,50.013a15.644,15.644,0,0,1,0,15.644" transform="translate(0 0)" fill="#fff" fill-rule="evenodd"/>
    <path id="Tracé_784" data-name="Tracé 784" d="M11,212.3c0,2.428-2.689,3.842-5.281,3.784-3.448-.078-5.2-2.383-5.2-4.477H2.9c0,.959.749,2.3,2.79,2.456,1.492.116,2.91-.6,2.918-1.763.007-.916-.8-1.4-1.731-1.641-.067-.018-2.519-.582-2.519-.582C2.264,209.6.842,208.524.842,206.274c0-2.158,2.084-3.676,4.908-3.676,3.342,0,5.089,1.883,5.089,4.1H8.451c0-1.041-.971-2.1-2.7-2.1-1.409,0-2.52.74-2.52,1.66,0,.833.7,1.245,1.529,1.459.064.017,2.516.581,2.516.581,2.2.538,3.724,1.782,3.724,4" transform="translate(-0.272 -105.671)" fill="#fff"/>
    <path id="Tracé_785" data-name="Tracé 785" d="M54.646,207.254c0,2.39-1.55,4.066-4.387,4.066h-.726c-1.765,0-1.956,1.275-1.977,1.548.01-.439.141-3.552,1.977-3.552h.726a1.976,1.976,0,0,0,2-1.973,1.864,1.864,0,0,0-2-2.006h-2.7l0,7.541c0,.027,0,.041,0,.041l0,3.2-2.383,0V203.33h5.1c2.486,0,4.382,1.546,4.382,3.924m-7.091,5.624v-.01c0,.033,0,.051,0,.051Z" transform="translate(-23.558 -106.052)" fill="#fff"/>
    <path id="Tracé_786" data-name="Tracé 786" d="M94.877,211.471h2.364a5.405,5.405,0,0,1-5.471,4.617c-3.673,0-5.664-3.02-5.664-6.747s2.261-6.747,5.641-6.747a5.2,5.2,0,0,1,5.558,4.618H94.929a3.163,3.163,0,0,0-3.184-2.582c-2.037.056-3.26,2.456-3.26,4.711s1.037,4.711,3.26,4.711c1.607,0,2.546-.962,3.132-2.582" transform="translate(-44.911 -105.669)" fill="#fff"/>
    <path id="Tracé_787" data-name="Tracé 787" d="M134.287,205.359v3.365h5.436v2h-5.436v5.392H131.9V203.331h8.96v2.027Z" transform="translate(-68.795 -106.053)" fill="#fff"/>
    <path id="Tracé_788" data-name="Tracé 788" d="M182.38,216.126h-2.909l-3.036-4.677-3.117,4.677h-2.847l4.53-6.566-4.24-6.218h2.912l1.94,2.935Zm-6.766-9.848s.923,1.343,1.769.058l1.957-2.993h2.82l-3.042,4.463c-1.229,1.783-3.5-1.528-3.5-1.528" transform="translate(-88.914 -106.059)" fill="#fff"/>
  </g>
</svg>
