<?xml version="1.0" encoding="utf-8"?>
<!-- Generator: Adobe Illustrator 26.3.1, SVG Export Plug-In . SVG Version: 6.00 Build 0)  -->
<svg version="1.1" id="Calque_1" xmlns="http://www.w3.org/2000/svg" xmlns:xlink="http://www.w3.org/1999/xlink" x="0px" y="0px"
	 viewBox="0 0 93 12.6" style="enable-background:new 0 0 93 12.6;" xml:space="preserve">
<style type="text/css">
	.st0{fill:#ffffff;}
	.st1{fill-rule:evenodd;clip-rule:evenodd;fill:#ffffff;}
</style>
<g>
	<g>
		<path class="st0" d="M6.4,6.2c-0.1,0-0.2,0-0.3,0c-0.8,0-1.5,0-2.3,0c-0.1,0-0.1,0-0.2,0c0,0-0.1,0.1-0.1,0.1c0,0,0.1,0.1,0.1,0.1
			c0.2,0,0.4,0,0.6,0c0.7,0,1.4,0,2.1,0c0.1,0,0.1,0,0.2,0c0,0.4-0.1,0.7-0.2,1C5.8,8.5,5,9,4,9.2C3.3,9.3,2.6,9.3,1.9,9
			c-1-0.4-1.7-1.3-1.8-2.4c0-0.7,0.1-1.4,0.5-2c0.4-0.6,1-0.9,1.8-1.1C3.2,3.4,4,3.4,4.8,3.8C5.8,4.2,6.3,5,6.4,6
			C6.4,6,6.4,6.1,6.4,6.2C6.4,6.1,6.4,6.2,6.4,6.2z"/>
		<path class="st0" d="M8.8,6.5c0.6,0,1.1,0,1.7,0c0.2,0,0.4,0,0.6,0.1c0.6,0.1,1,0.8,0.9,1.4c-0.1,0.6-0.6,1.1-1.2,1.1
			c-1.3,0-2.6,0-3.8,0c-0.2,0-0.3,0-0.3-0.3c0-0.7,0-1.4,0-2.1c0-0.2,0.1-0.3,0.3-0.3C7.6,6.5,8.2,6.5,8.8,6.5
			C8.8,6.5,8.8,6.5,8.8,6.5z"/>
		<path class="st0" d="M6.7,3.7c0.1,0,0.2,0,0.3,0c1.1,0,2.3,0,3.4,0c0.2,0,0.4,0,0.7,0.1c0.6,0.1,1,0.7,0.9,1.3
			c-0.1,0.7-0.6,1.1-1.2,1.1c-1.3,0-2.6,0-3.8,0c-0.2,0-0.3-0.1-0.3-0.3c0-0.7,0-1.4,0-2C6.7,3.8,6.7,3.8,6.7,3.7z"/>
	</g>
	<g>
		<g>
			<polygon class="st0" points="21.9,9 22.8,3.7 24.3,3.7 23.4,9 21.9,9 			"/>
			<path class="st0" d="M28.7,3.8c-0.3-0.1-0.7-0.2-1.3-0.2c-1.4,0-2.5,0.7-2.5,1.8c0,0.8,0.7,1.2,1.3,1.5c0.6,0.3,0.8,0.4,0.8,0.7
				c0,0.4-0.5,0.5-0.9,0.5c-0.6,0-0.9-0.1-1.4-0.3l-0.2-0.1l-0.2,1.2c0.3,0.1,1,0.3,1.6,0.3c1.5,0,2.5-0.7,2.5-1.8
				c0-0.6-0.4-1.1-1.2-1.5c-0.5-0.2-0.8-0.4-0.8-0.7c0-0.2,0.3-0.5,0.8-0.5c0.5,0,0.8,0.1,1.1,0.2L28.5,5L28.7,3.8L28.7,3.8z"/>
			<path class="st0" d="M32.4,3.7h-1.1c-0.3,0-0.6,0.1-0.8,0.4L28.4,9h1.5c0,0,0.2-0.7,0.3-0.8c0.2,0,1.7,0,1.9,0
				c0,0.2,0.2,0.8,0.2,0.8h1.4L32.4,3.7L32.4,3.7z M30.6,7.1c0.1-0.3,0.6-1.5,0.6-1.5c0,0,0.1-0.3,0.2-0.5l0.1,0.5
				c0,0,0.3,1.3,0.3,1.5H30.6L30.6,7.1z"/>
			<path class="st0" d="M20.7,3.7l-1.4,3.6l-0.2-0.7c-0.3-0.9-1.1-1.8-2-2.2L18.4,9L20,9l2.3-5.3H20.7L20.7,3.7z"/>
			<path class="st0" d="M18,3.7h-2.4l0,0.1c1.8,0.4,3,1.5,3.5,2.8l-0.5-2.5C18.5,3.8,18.3,3.7,18,3.7L18,3.7z"/>
		</g>
	</g>
	<g>
		<path class="st0" d="M48.8,1.2c-1.2,0-2.3,0.4-3.3,1.2c-0.9-0.7-2-1.2-3.3-1.2c-2.8,0-5.1,2.3-5.1,5.1s2.3,5.1,5.1,5.1
			c1.2,0,2.4-0.4,3.3-1.2c0.9,0.8,2.1,1.2,3.3,1.2c2.8,0,5.1-2.3,5.1-5.1C53.9,3.5,51.6,1.2,48.8,1.2z M48.8,11
			c-1.1,0-2.2-0.4-3-1.1c0.6-0.6,1.1-1.4,1.4-2.2h-0.4c-0.2,0.8-0.7,1.4-1.2,2c-0.6-0.5-1-1.2-1.2-2h-0.4c0.3,0.8,0.7,1.6,1.3,2.2
			c-0.8,0.7-1.8,1.1-3,1.1c-2.6,0-4.7-2.1-4.7-4.7s2.1-4.7,4.7-4.7c1.1,0,2.2,0.4,3,1.1c-0.6,0.6-1.1,1.4-1.3,2.2l0.4,0
			c0.2-0.7,0.7-1.4,1.2-2c0.6,0.5,1,1.2,1.2,2h0.4c-0.3-0.8-0.7-1.6-1.4-2.2c0.8-0.7,1.8-1.1,3-1.1c2.6,0,4.7,2.1,4.7,4.7
			C53.5,8.9,51.4,11,48.8,11z"/>
		<path class="st0" d="M45.8,6.6c0.1-0.3,0.2-1-0.7-1c-0.8,0-0.9,0.8-0.9,0.9c0,0.1,0,0.9,0.8,0.9c0.2,0,0.5,0,0.6-0.1L45.7,7
			c-0.1,0-0.3,0-0.5,0c-0.2,0-0.5,0-0.4-0.4H45.8z M44.8,6.3C44.8,6.3,44.8,6.3,44.8,6.3C44.8,6.3,44.8,6.3,44.8,6.3
			C44.8,6.2,44.8,6.2,44.8,6.3C44.8,6.2,44.8,6.2,44.8,6.3C44.8,6.3,44.8,6.3,44.8,6.3C44.8,6.3,44.8,6.3,44.8,6.3
			C44.8,6.3,44.8,6.3,44.8,6.3C44.8,6.1,44.9,6,45.1,6c0.2,0,0.2,0.1,0.2,0.3L44.8,6.3C44.8,6.3,44.8,6.3,44.8,6.3z"/>
		<path class="st0" d="M43.9,6.8L44,6h0.2l0.1-0.4h-0.3l0.1-0.5h-0.5l-0.3,1.7c-0.1,0.5,0.3,0.5,0.4,0.5c0.1,0,0.3,0,0.4-0.1l0-0.4
			C43.9,7,43.8,6.9,43.9,6.8z"/>
		<path class="st0" d="M50.8,5.8l0-0.2h-0.4L50,7.4h0.5l0.1-0.8c0.1-0.5,0.4-0.5,0.5-0.5l0.1-0.5C51,5.7,50.9,5.7,50.8,5.8z"/>
		<path class="st0" d="M40.7,5.7C40.8,5.7,40.8,5.7,40.7,5.7C40.8,5.7,40.7,5.7,40.7,5.7z"/>
		<path class="st0" d="M40.8,5.7C40.8,5.7,40.8,5.7,40.8,5.7L40.8,5.7z"/>
		<path class="st0" d="M40.7,5.7C40.7,5.7,40.7,5.7,40.7,5.7C40.7,5.7,40.7,5.7,40.7,5.7z"/>
		<path class="st0" d="M43.1,6.5c-0.1-0.1-0.2-0.1-0.3-0.2c-0.1,0-0.2-0.2,0-0.3c0.1,0,0.3,0,0.5,0c0,0,0,0,0,0c0,0,0,0,0,0
			c0,0,0,0,0,0c0,0,0,0,0,0c0,0,0,0,0,0c0,0,0,0,0,0c0,0,0,0,0,0c0,0,0,0,0,0c0,0,0,0,0,0c0,0,0,0,0,0l0.1-0.4
			c-0.2-0.1-0.4-0.1-0.5-0.1c-0.1,0-0.6,0-0.7,0.4c-0.1,0.3,0.1,0.5,0.2,0.5c0.2,0.1,0.3,0.2,0.4,0.2C42.8,6.8,42.8,7,42.6,7
			c-0.1,0-0.4,0-0.6,0L42,7.3c0.2,0.1,0.4,0.1,0.6,0.1c0.1,0,0.7,0,0.8-0.5C43.3,6.7,43.2,6.5,43.1,6.5z"/>
		<polygon class="st0" points="39.8,5.3 39.2,6.6 39.1,5.3 38.3,5.3 37.9,7.4 38.4,7.4 38.7,5.9 38.8,7.4 39.3,7.4 39.9,5.9 
			39.7,7.4 40.2,7.4 40.6,5.3 		"/>
		<path class="st0" d="M41.3,5.6c-0.1,0-0.3,0-0.6,0.1l-0.1,0.4C40.7,6.1,41,6,41.2,6c0.2,0,0.3,0,0.3,0.2c-0.1,0-1-0.1-1.1,0.6
			c-0.1,0.4,0.3,0.5,0.5,0.5c0.2,0,0.3,0,0.4-0.1l0.1,0.1h0.4l0.2-1C42,6.2,42.1,5.6,41.3,5.6z M41.4,6.8C41.3,7,41.1,7.1,41,7
			c-0.2-0.1-0.1-0.2,0-0.3c0.2-0.1,0.3-0.1,0.4,0L41.4,6.8z"/>
		<path class="st0" d="M52.6,5.2l-0.1,0.7c-0.1-0.1-0.1-0.2-0.4-0.2c-0.3,0-0.7,0-0.9,0.7c-0.2,0.5,0.2,1,0.5,1
			c0.2,0,0.3-0.1,0.4-0.1l0.1,0.1h0.5l0.4-2.2H52.6z M52.3,6.6c-0.1,0.2-0.2,0.4-0.4,0.4c-0.2,0-0.3-0.2-0.2-0.4
			c0.1-0.4,0.4-0.5,0.6-0.3C52.3,6.2,52.3,6.4,52.3,6.6z"/>
		<path class="st0" d="M48.1,5.2c-0.3,0-0.9,0.2-1.1,0.9c-0.2,0.9,0.3,1.3,0.8,1.3c0.3,0,0.4,0,0.6-0.1l-0.1-0.4
			c-0.5,0.2-0.8-0.1-0.8-0.6c0.1-0.4,0.4-0.6,0.6-0.6c0.2,0,0.2,0,0.4,0.1v0l0.3-0.3C48.6,5.3,48.4,5.2,48.1,5.2z"/>
		<path class="st0" d="M48.9,5.7C48.9,5.7,48.9,5.7,48.9,5.7L48.9,5.7z"/>
		<path class="st0" d="M48.8,5.7C48.8,5.7,48.8,5.7,48.8,5.7C48.8,5.7,48.8,5.7,48.8,5.7z"/>
		<path class="st0" d="M49.4,5.6c-0.1,0-0.3,0-0.6,0.1h0l-0.1,0.4c0.1,0,0.4-0.1,0.6-0.1c0.2,0,0.3,0,0.3,0.2c-0.1,0-1-0.1-1.1,0.6
			c-0.1,0.4,0.3,0.5,0.5,0.5c0.2,0,0.3,0,0.4-0.1l0.1,0.1h0.4l0.2-1C50.1,6.2,50.2,5.6,49.4,5.6z M49.4,6.8C49.4,7,49.2,7.1,49,7
			c-0.2-0.1-0.1-0.2,0-0.3c0.2-0.1,0.3-0.1,0.4,0L49.4,6.8z"/>
		<path class="st0" d="M48.8,5.7C48.8,5.7,48.8,5.7,48.8,5.7C48.8,5.7,48.8,5.7,48.8,5.7z"/>
		<path class="st0" d="M48.7,5.7C48.7,5.7,48.7,5.7,48.7,5.7C48.7,5.7,48.7,5.7,48.7,5.7z"/>
		<path class="st0" d="M46.5,5.8l0-0.2h-0.4l-0.3,1.7h0.5l0.1-0.8c0.1-0.5,0.4-0.5,0.5-0.5L47,5.7C46.8,5.7,46.6,5.8,46.5,5.8z"/>
	</g>
</g>
<g>
	<g>
		<path class="st1" d="M60.3,3.7c0.8,0,1.5,0.4,1.4,1.5c-0.1,1.2-0.8,1.9-1.8,1.9h-0.9c-0.1,0-0.2,0.1-0.2,0.3l-0.2,1.1
			c0,0.2-0.1,0.3-0.2,0.3h-0.8c-0.1,0-0.2-0.1-0.2-0.3L58,4c0-0.2,0.1-0.3,0.3-0.3H60.3L60.3,3.7z M58.9,6.1l0.7,0
			c0.4,0,0.7-0.3,0.7-0.9c0-0.3-0.2-0.6-0.6-0.6l-0.6,0L58.9,6.1L58.9,6.1z M64,8.4c0.1-0.1,0.2-0.1,0.1,0l0,0.2
			c0,0.1,0,0.2,0.1,0.2H65c0.1,0,0.2-0.1,0.2-0.2l0.5-2.9c0-0.1,0-0.2-0.1-0.2h-0.8c-0.1,0-0.1,0-0.1,0.2l0,0.2c0,0.1-0.1,0.1-0.1,0
			c-0.1-0.3-0.5-0.5-1-0.5c-1.2,0-1.9,0.9-2,2c-0.1,0.9,0.6,1.6,1.4,1.6C63.4,8.9,63.7,8.7,64,8.4L64,8.4z M63.4,8
			c-0.5,0-0.8-0.4-0.8-0.9c0.1-0.5,0.5-0.9,1-0.9s0.8,0.4,0.8,0.9C64.3,7.6,63.9,8,63.4,8L63.4,8z M67.1,5.4h-0.8
			c-0.2,0-0.2,0.1-0.2,0.3l0.9,2.8l-0.9,1.3c-0.1,0.1,0,0.2,0.1,0.2h0.9c0.1,0,0.2,0,0.3-0.1l2.9-4.2c0.1-0.1,0-0.3-0.1-0.3l-0.8,0
			c-0.1,0-0.2,0.1-0.3,0.2l-1.2,1.8l-0.5-1.8C67.4,5.4,67.3,5.4,67.1,5.4z"/>
		<path class="st1" d="M73.4,3.7c0.8,0,1.5,0.4,1.4,1.5C74.6,6.4,74,7,72.9,7.1H72c-0.1,0-0.2,0.1-0.2,0.3l-0.2,1.1
			c0,0.2-0.1,0.3-0.2,0.3h-0.8c-0.1,0-0.2-0.1-0.2-0.3L71.1,4c0-0.2,0.1-0.3,0.3-0.3H73.4L73.4,3.7z M72,6.1l0.7,0
			c0.4,0,0.7-0.3,0.7-0.9c0-0.3-0.2-0.6-0.6-0.6l-0.6,0L72,6.1L72,6.1z M77.1,8.4c0.1-0.1,0.2-0.1,0.1,0l0,0.2c0,0.1,0,0.2,0.1,0.2
			h0.8c0.1,0,0.2-0.1,0.2-0.2l0.5-2.9c0-0.1,0-0.2-0.1-0.2h-0.8c-0.1,0-0.1,0-0.1,0.2l0,0.2c0,0.1-0.1,0.1-0.1,0
			c-0.1-0.3-0.5-0.5-1-0.5c-1.2,0-1.9,0.9-2,2c-0.1,0.9,0.6,1.6,1.4,1.6C76.5,8.9,76.8,8.7,77.1,8.4L77.1,8.4z M76.4,8
			c-0.5,0-0.8-0.4-0.8-0.9c0.1-0.5,0.5-0.9,1-0.9c0.5,0,0.8,0.4,0.8,0.9C77.4,7.6,76.9,8,76.4,8L76.4,8z M79.9,8.8H79
			c-0.1,0-0.1-0.1-0.1-0.1l0.8-4.8c0-0.1,0.1-0.1,0.1-0.1h0.9c0.1,0,0.1,0.1,0.1,0.1L80,8.6C80,8.7,80,8.8,79.9,8.8z"/>
	</g>
	<g>
		<path class="st0" d="M84.4,7.7V7l2-2.9h1v2.8h0.5v0.7h-0.5v0.9h-0.9V7.7H84.4z M86.6,5l-1.3,1.9h1.3V5z"/>
		<path class="st0" d="M91.9,8.5l-0.9-1.4l-0.8,1.4h-1l1.3-2.2l-1.4-2.1h1L91,5.7l0.8-1.4h1l-1.3,2.2l1.4,2.1H91.9z"/>
	</g>
</g>
</svg>
