<svg xmlns="http://www.w3.org/2000/svg" width="23.241" height="23.241" viewBox="0 0 23.241 23.241">
  <path id="Tracé_617" data-name="Tracé 617" d="M342.546,808.65H331.071a5.883,5.883,0,0,0-5.883,5.883v11.476a5.883,5.883,0,0,0,5.883,5.883h.7l0,0c-.01-.261-.017-.523-.009-.784.041-1.2.189-2.245,1.738-8.76a.45.45,0,0,0-.036-.271,4.582,4.582,0,0,1-.12-3.045c.7-2.222,3.22-2.392,3.661-.559.271,1.134-.447,2.618-1,4.811-.456,1.81,1.674,3.1,3.495,1.775,1.679-1.218,2.331-4.138,2.207-6.208-.244-4.125-4.769-5.018-7.639-3.689-3.29,1.522-4.039,5.6-2.552,7.465.188.238.334.382.271.622-.1.374-.18.749-.283,1.121a.4.4,0,0,1-.588.264,3.366,3.366,0,0,1-1.375-1.03,6.513,6.513,0,0,1,.046-7.27,8.736,8.736,0,0,1,8.426-3.716,7.136,7.136,0,0,1,6.563,5.894,9.81,9.81,0,0,1-1.8,6.9c-2.138,2.652-5.6,2.828-7.2,1.2-.123-.124-.222-.271-.342-.42-.018.06-.034.11-.047.161-.738,2.89-.847,4.2-1.555,5.54l.008,0h8.9a5.883,5.883,0,0,0,5.883-5.883V814.533A5.883,5.883,0,0,0,342.546,808.65Z" transform="translate(-325.188 -808.65)" fill="#d5d5d5"/>
</svg>
