<svg xmlns="http://www.w3.org/2000/svg" width="23.24" height="23.241" viewBox="0 0 23.24 23.241">
  <path id="Tracé_620" data-name="Tracé 620" d="M397.444,808.65H385.968a5.882,5.882,0,0,0-5.882,5.883v11.476a5.882,5.882,0,0,0,5.882,5.883h11.476a5.882,5.882,0,0,0,5.882-5.883V814.533A5.882,5.882,0,0,0,397.444,808.65Zm.367,10.259h0c-.117.011-.234.017-.351.017a3.808,3.808,0,0,1-3.188-1.722v5.866a4.335,4.335,0,1,1-4.336-4.335c.091,0,.179.008.268.014v2.136a2.3,2.3,0,0,0-.268-.027,2.213,2.213,0,0,0,0,4.426,2.267,2.267,0,0,0,2.3-2.185l.022-9.962H394.3a3.807,3.807,0,0,0,3.509,3.4Z" transform="translate(-380.086 -808.65)" fill="#d5d5d5"/>
</svg>
