<svg xmlns="http://www.w3.org/2000/svg" width="23.24" height="23.241" viewBox="0 0 23.24 23.241">
  <path id="Tracé_612" data-name="Tracé 612" d="M287.649,808.65H276.173a5.882,5.882,0,0,0-5.882,5.883v11.476a5.882,5.882,0,0,0,5.882,5.883h11.476a5.882,5.882,0,0,0,5.882-5.883V814.533A5.882,5.882,0,0,0,287.649,808.65Zm.655,7.777a.318.318,0,0,1-.066.2,4.978,4.978,0,0,1-1,1.041c-.057.043-.152.087-.152.168a7.716,7.716,0,0,1-2.035,5.629,7.574,7.574,0,0,1-7.353,1.72,7.026,7.026,0,0,1-1.422-.569c-.15-.082-.3-.167-.443-.263-.037-.03-.064-.057-.032-.076s.055-.017.169,0A5.017,5.017,0,0,0,278.1,824a3.247,3.247,0,0,0,1.4-.742c.005-.008.01-.008.016-.017-.093-.021-.186-.021-.279-.038a2.744,2.744,0,0,1-2.051-1.717c-.027-.068,0-.1.071-.09a2.953,2.953,0,0,0,.976-.03,1.512,1.512,0,0,1-.331-.1,2.644,2.644,0,0,1-1.63-2.108,1.549,1.549,0,0,1-.016-.3c.005-.068.035-.09.1-.052a2.632,2.632,0,0,0,.995.279c-.111-.088-.216-.184-.317-.279a2.616,2.616,0,0,1-.446-3.091c.05-.074.082-.074.142-.005a8.018,8.018,0,0,0,5.158,2.625c.054.008.059,0,.052-.06a2.758,2.758,0,0,1,.027-1.078,2.614,2.614,0,0,1,.51-1.021,2.731,2.731,0,0,1,.853-.7,2.658,2.658,0,0,1,1.058-.3,2.53,2.53,0,0,1,1.115.18,2.645,2.645,0,0,1,.727.445,1.226,1.226,0,0,1,.131.134.1.1,0,0,0,.1.028,6.476,6.476,0,0,0,1.5-.574.072.072,0,0,1,.067-.006c.022.016.014.044,0,.066a2.326,2.326,0,0,1-.42.766c-.121.149-.419.517-.622.552a5.177,5.177,0,0,0,1.266-.362c.051-.023.052-.033.052,0Z" transform="translate(-270.291 -808.65)" fill="#d5d5d5"/>
</svg>
