<svg id="Groupe_614" data-name="Groupe 614" xmlns="http://www.w3.org/2000/svg" width="23.241" height="23.241" viewBox="0 0 23.241 23.241">
  <path id="Tracé_618" data-name="Tracé 618" d="M452.341,808.65H440.866a5.883,5.883,0,0,0-5.883,5.883v11.476a5.883,5.883,0,0,0,5.883,5.883h11.476a5.883,5.883,0,0,0,5.883-5.883V814.533A5.883,5.883,0,0,0,452.341,808.65Zm.408,13.5a2.756,2.756,0,0,1-2.757,2.756h-7.048a2.756,2.756,0,0,1-2.757-2.756v-3.28a2.756,2.756,0,0,1,2.757-2.756h7.048a2.756,2.756,0,0,1,2.757,2.756Z" transform="translate(-434.983 -808.65)" fill="#d5d5d5"/>
  <path id="Tracé_619" data-name="Tracé 619" d="M453.944,826.007l-3.025-1.646c-.124-.07-.548.019-.548.162v3.21c0,.141.421.231.545.164l3.161-1.564C454.2,826.263,454.071,826.079,453.944,826.007Z" transform="translate(-440.455 -814.228)" fill="#d5d5d5"/>
</svg>
